/* XPM */
static const char * rl32x32_xpm[] = {
"32 32 168 2",
"  	c None",
". 	c #191980",
"+ 	c #1A1A94",
"@ 	c #1919A6",
"# 	c #1A1AB9",
"$ 	c #1B1BCC",
"% 	c #1111DD",
"& 	c #1E1EE4",
"* 	c #00009C",
"= 	c #0202AD",
"- 	c #0404BE",
"; 	c #0606CE",
"> 	c #0808E1",
", 	c #0909F5",
"' 	c #1414F8",
") 	c #1C1CF7",
"! 	c #1515FA",
"~ 	c #000096",
"{ 	c #0000AD",
"] 	c #0000AC",
"^ 	c #0101AC",
"/ 	c #0000AE",
"( 	c #2222DA",
"_ 	c #0000AF",
": 	c #0000A9",
"< 	c #0000AB",
"[ 	c #1616D5",
"} 	c #04049E",
"| 	c #0101AD",
"1 	c #0303B6",
"2 	c #060681",
"3 	c #00007C",
"4 	c #0101AE",
"5 	c #0008C5",
"6 	c #060692",
"7 	c #0505AA",
"8 	c #0606C6",
"9 	c #0505E8",
"0 	c #0000A8",
"a 	c #0606EC",
"b 	c #0000BF",
"c 	c #000099",
"d 	c #3A0061",
"e 	c #E30101",
"f 	c #F70A0A",
"g 	c #F91515",
"h 	c #FB0E0E",
"i 	c #0000A5",
"j 	c #0202B6",
"k 	c #0808C9",
"l 	c #0E0EE5",
"m 	c #0000A7",
"n 	c #0C0CF4",
"o 	c #0000C6",
"p 	c #06009F",
"q 	c #A30001",
"r 	c #A30000",
"s 	c #A60101",
"t 	c #B50808",
"u 	c #DC1F1F",
"v 	c #FF2D2D",
"w 	c #FD1515",
"x 	c #0000AA",
"y 	c #0A0AB8",
"z 	c #0001AD",
"A 	c #6E002D",
"B 	c #A60000",
"C 	c #990909",
"D 	c #9A0000",
"E 	c #AA0808",
"F 	c #EF3535",
"G 	c #FD1212",
"H 	c #010191",
"I 	c #0F0F95",
"J 	c #0001B0",
"K 	c #81001D",
"L 	c #E20909",
"M 	c #FE1515",
"N 	c #AE0000",
"O 	c #9D0101",
"P 	c #F51313",
"Q 	c #F90D0D",
"R 	c #0000A2",
"S 	c #0404B2",
"T 	c #0000A6",
"U 	c #0303A6",
"V 	c #4C0052",
"W 	c #AD0502",
"X 	c #F93C3C",
"Y 	c #FF1B1B",
"Z 	c #FF1111",
"` 	c #BA0101",
" .	c #B20000",
"..	c #8F0000",
"+.	c #B60202",
"@.	c #ED2727",
"#.	c #FF2828",
"$.	c #FF1713",
"%.	c #00048E",
"&.	c #0101A9",
"*.	c #0101AB",
"=.	c #0D0DE9",
"-.	c #0000B5",
";.	c #5C0045",
">.	c #A00000",
",.	c #CD1E1E",
"'.	c #F32121",
").	c #FF1010",
"!.	c #E10101",
"~.	c #890000",
"{.	c #A20202",
"].	c #B00E0E",
"^.	c #F63A39",
"/.	c #C1092D",
"(.	c #0000B0",
"_.	c #0101B5",
":.	c #00009F",
"<.	c #1515F5",
"[.	c #1616F2",
"}.	c #0505A3",
"|.	c #0001AE",
"1.	c #1E0088",
"2.	c #820634",
"3.	c #970000",
"4.	c #9F0000",
"5.	c #970101",
"6.	c #F3191A",
"7.	c #0000BE",
"8.	c #0C0CBA",
"9.	c #0303E2",
"0.	c #0101A7",
"a.	c #2222E6",
"b.	c #2727F6",
"c.	c #191DDD",
"d.	c #4E0D85",
"e.	c #9C0000",
"f.	c #DD2D2D",
"g.	c #FF1D1D",
"h.	c #FB0F0F",
"i.	c #87050A",
"j.	c #A00012",
"k.	c #0001B6",
"l.	c #0505A4",
"m.	c #0003B4",
"n.	c #A40400",
"o.	c #DC2727",
"p.	c #F72323",
"q.	c #FC1010",
"r.	c #800000",
"s.	c #7F0027",
"t.	c #0303AF",
"u.	c #9C0202",
"v.	c #980000",
"w.	c #AB0202",
"x.	c #B30000",
"y.	c #A20000",
"z.	c #1D008C",
"A.	c #0A0ADE",
"B.	c #0F0FF6",
"C.	c #2C0055",
"D.	c #0201A9",
"E.	c #0A0AFF",
"F.	c #0909FA",
"G.	c #0808FA",
"H.	c #000088",
"I.	c #0606C9",
"J.	c #1010F9",
"K.	c #181894",
"                                                                ",
"                                                                ",
"                                                                ",
"                                                                ",
"                                                                ",
"                                                                ",
"        . + @ # $ % &                                           ",
"        * = - ; > , ' ) !                                       ",
"      ~ { ] { ^ { / { ] (                                       ",
"          ^ { _     : ] < [                                     ",
"          { ^ {     } { | 1                                     ",
"          ] ^ ]     2 / { /                                     ",
"          ] | <     3 4 ^ 5                       6 7 8 9       ",
"          ] | 0 a b c ^ d e f g h                 i j k l       ",
"          | ] m n o ] p q r s t u v w             ] ] x y       ",
"          | ] { : < z A B     C D E F G         H | | ]         ",
"          : | { I { J K L M       N O P Q       R | ] S         ",
"          T | {   U ] V W X Y Z `  ...+.@.#.$.%.&.^ ]           ",
"          i | *.=.  < -.;.>.,.'.).!.~.{.D ].^./.(.| {           ",
"        _.:.| x <.[.}.{ |.1.2.3.r >.4.    5.>.6.7.] 8.          ",
"        9.0.| x a.b.  < ^ < c.d.e.f.g.h.    i.j.k.^             ",
"        m ] ] ] x     l.x : 0 m.n.D o.p.q.e r.s.z t.            ",
"                                    u.v.w.x.y.z.< A.B.B.B.B.B.  ",
"                                          C.D.*._ E.F.F.F.F.G.  ",
"                                          H.] ] I.J.J.J.J.J.J.  ",
"                                          (.| | < < < < < < {   ",
"                                        K.4 | | | | | | | |     ",
"                                                                ",
"                                                                ",
"                                                                ",
"                                                                ",
"                                                                "};
